<svg width="1524" height="266" viewBox="0 0 1524 266" fill="none" xmlns="http://www.w3.org/2000/svg">
<g clip-path="url(#clip0_204_9)">
<path fill-rule="evenodd" clip-rule="evenodd" d="M279.701 20.2662H1494.86C1512.34 20.2662 1524 35.1168 1524 49.9674V222.234C1524 240.055 1509.43 251.935 1494.86 251.935H279.701C273.873 251.935 268.044 248.965 262.217 245.995C282.615 219.264 297.185 180.653 297.185 139.071C297.185 97.489 285.529 58.8777 265.131 26.2064C268.044 23.2363 273.873 20.2662 279.701 20.2662Z" fill="#0099A2"/>
<path d="M1387.04 139.072C1387.04 130.162 1389.95 121.251 1401.61 121.251V159.862C1392.87 153.922 1387.04 147.982 1387.04 139.072ZM1424.92 118.281C1433.67 121.251 1436.58 130.162 1436.58 139.072C1436.58 147.982 1430.75 153.922 1422.01 156.892V118.281H1424.92ZM1401.61 97.4908C1375.38 100.461 1363.73 118.281 1363.73 139.072C1363.73 156.892 1375.38 174.713 1401.61 180.653V189.564H1424.92V177.683C1448.24 174.713 1462.8 156.892 1462.8 136.102C1462.8 118.281 1451.15 100.461 1424.92 94.5199V88.5801H1401.61V97.4908ZM1308.36 136.102V112.341H1322.93C1337.5 112.341 1337.5 136.102 1322.93 136.102H1308.36ZM1285.05 88.5801V186.593H1308.36V156.892H1322.93C1366.65 156.892 1366.65 88.5801 1322.93 88.5801H1285.05ZM1264.65 162.833C1258.82 162.833 1252.99 168.773 1252.99 174.713C1252.99 180.653 1258.82 186.593 1264.65 186.593C1273.39 186.593 1276.3 180.653 1276.3 174.713C1279.23 168.773 1273.39 162.833 1264.65 162.833ZM1200.54 127.191L1209.29 147.982V150.952H1194.72V147.982L1200.54 127.191ZM1220.94 186.593H1247.17L1206.37 88.5801H1188.88L1151 186.593H1177.23L1183.06 171.743H1215.11L1220.94 186.593ZM1145.18 88.5801H1116.03L1089.81 127.191V88.5801H1066.49V186.593H1089.81V147.982L1118.95 186.593H1148.09L1110.21 139.072L1145.18 88.5801ZM1014.04 150.952H1054.84V127.191H1016.95V112.341H1054.84V88.5801H990.727V186.593H1054.84V162.833H1014.04V150.952ZM955.766 186.593V112.341H981.991V88.5801H906.223V112.341H932.452V186.593H955.766ZM824.629 88.5801V186.593H847.942V112.341H874.168V186.593H897.481V88.5801H824.629ZM772.176 127.191L780.919 147.982V150.952H763.434V147.982L772.176 127.191ZM792.574 186.593H818.802L778.005 88.5801H763.434L725.552 186.593H751.778L757.606 171.743H789.661L792.574 186.593ZM696.411 133.132H681.841C667.271 133.132 667.271 112.341 681.841 112.341H696.411V133.132ZM696.411 153.922V186.593H719.724V88.5801H681.841C643.958 88.5801 638.13 136.102 667.271 150.952L646.872 180.653V186.593H673.098L693.497 153.922H696.411ZM562.365 139.072C562.365 103.431 614.818 103.431 614.818 139.072C614.818 174.713 562.365 174.713 562.365 139.072ZM539.052 139.072C539.052 165.803 559.45 189.564 588.592 189.564C614.818 189.564 638.13 168.773 638.13 139.072C638.13 109.371 614.818 88.5801 588.592 88.5801C559.45 88.5801 539.052 109.371 539.052 139.072ZM477.857 147.982H498.256C506.998 147.982 506.998 165.803 498.256 165.803H477.857V147.982ZM454.545 88.5801V186.593H498.256C518.654 186.593 530.31 171.743 530.31 153.922C530.31 145.012 527.396 136.102 515.74 133.132C533.224 121.251 521.568 88.5801 498.256 88.5801H454.545ZM477.857 112.341H495.342C504.084 112.341 504.084 127.191 495.342 127.191H477.857V112.341ZM419.576 186.593V112.341H445.803V88.5801H370.037V112.341H396.264V186.593H419.576Z" fill="white"/>
<path fill-rule="evenodd" clip-rule="evenodd" d="M1.8515 166.913V101.756C1.8515 92.103 9.00807 87.2769 16.1647 87.2769H80.5739V22.12C80.5739 14.8803 87.7304 7.64069 97.2729 7.64069H159.296C168.838 7.64069 173.609 14.8803 173.609 22.12V87.2769H238.019C247.561 87.2769 252.332 94.5162 252.332 101.756V164.5V166.913C240.404 162.087 228.477 157.26 216.549 152.434L159.296 130.715C156.91 130.715 154.525 128.302 152.14 128.302L144.983 125.889C118.742 111.409 113.972 111.409 94.8871 87.2769C92.5014 96.9295 94.8871 116.236 99.6578 125.889C113.972 162.087 154.525 174.153 185.537 181.393H173.609V183.806C156.91 181.393 133.055 174.153 123.513 162.087C121.128 166.913 123.513 171.74 125.899 181.393C128.285 191.045 137.827 200.698 142.597 203.111C149.754 207.938 156.91 210.351 164.068 212.764C166.453 212.764 168.838 212.764 173.609 215.177V222.417C164.068 220.004 152.14 217.591 144.983 215.177C147.369 227.244 159.296 236.897 175.995 241.722V246.549C175.995 256.202 168.838 261.029 161.682 261.029H97.2729C87.7304 261.029 82.9594 253.789 82.9594 246.549V181.393H16.1647C9.00807 181.393 1.8515 174.153 1.8515 166.913Z" fill="#F4333E"/>
</g>
<defs>
<clipPath id="clip0_204_9">
<rect width="1524" height="266" fill="white"/>
</clipPath>
</defs>
</svg>
