<svg width="53" height="52" viewBox="0 0 53 52" fill="none" xmlns="http://www.w3.org/2000/svg">
<mask id="mask0_702_2446" style="mask-type:luminance" maskUnits="userSpaceOnUse" x="2" y="13" width="29" height="29">
<path d="M30.6221 13.752H2.94434V41.6275H30.6221V13.752Z" fill="white"/>
</mask>
<g mask="url(#mask0_702_2446)">
<path d="M30.6194 25.6681V19.9689C30.6194 18.9487 29.5801 16.9487 27.1779 16.9487C24.9909 16.9487 20.4317 19.5065 18.9965 20.4302H14.5701C13.1349 19.5065 8.57566 16.9487 6.38825 16.9487C3.98608 16.9487 2.94697 18.9486 2.94697 19.9689V25.6684C2.9434 25.7289 2.94351 25.7888 2.94697 25.8481C2.94719 26.2327 2.96059 27.1959 3.76 27.8921C4.22809 28.2997 4.85565 28.5237 5.65944 28.5682L4.26237 30.241L9.99149 38.4305L15.199 26.9094H18.3673L23.575 38.4305L29.3041 30.2409L27.9069 28.5681C28.7106 28.5237 29.3384 28.2997 29.8064 27.8921C30.6055 27.1962 30.6191 26.2331 30.6193 25.8484C30.6229 25.7889 30.6229 25.7288 30.6194 25.6681ZM4.82084 26.6565C4.61164 26.4744 4.56877 26.1938 4.56877 25.8285V25.7459C4.58839 25.6702 4.68683 25.4742 4.91869 25.294C5.07264 25.1744 5.39207 24.9833 5.80237 25.0488C6.5034 25.1603 8.89093 25.6217 11.0591 26.0831C9.69926 26.3748 8.15487 26.6807 6.86202 26.8706C5.52538 27.0668 5.00939 26.8207 4.82084 26.6565ZM9.68763 35.1602L6.30803 30.3291L7.96086 28.3501C9.79137 28.0421 11.8603 27.5895 13.2545 27.2689L9.68763 35.1602ZM6.05536 23.4354C5.54711 23.3545 5.03621 23.4225 4.56871 23.6219L4.56866 19.9739C4.57379 19.8772 4.67824 19.5085 4.96972 19.1763C5.31547 18.782 5.7928 18.5822 6.38825 18.5822C7.09901 18.5822 8.50625 19.0635 10.249 19.9027C11.5222 20.5158 12.7863 21.2274 13.5486 21.7105L13.7189 24.076L13.7869 25.0203C11.3472 24.435 7.07798 23.5981 6.05536 23.4354ZM18.1349 25.2759H15.4314L15.2002 22.0637H18.3664L18.1349 25.2759ZM19.9384 22.8127L20.0179 21.7105C20.7802 21.2275 22.0442 20.5159 23.3174 19.9028C25.0602 19.0636 26.4673 18.5822 27.1779 18.5822C27.7736 18.5822 28.251 18.7821 28.5967 19.1764C28.888 19.5086 28.9924 19.8772 28.9975 19.9689V23.6221C28.53 23.4228 28.0189 23.3548 27.5106 23.4354C26.4879 23.5982 22.2188 24.4352 19.7794 25.0204L19.9384 22.8127ZM23.8786 35.1602L20.3117 27.2688C21.7058 27.5894 23.7746 28.042 25.6052 28.35L27.2583 30.3291L23.8786 35.1602ZM28.9976 25.8285C28.9975 26.1939 28.9547 26.4745 28.7456 26.6566C28.5571 26.8208 28.0411 27.067 26.7048 26.8707C25.4122 26.6808 23.8676 26.3748 22.5074 26.0832C24.6754 25.6218 27.0627 25.1605 27.7637 25.0488C28.1743 24.9833 28.4938 25.1745 28.6477 25.2941C28.8795 25.4741 28.9779 25.6701 28.9976 25.7458V25.8285Z" fill="#009CA5"/>
</g>
<path fill-rule="evenodd" clip-rule="evenodd" d="M15.9004 42.8137V31.5449H18.1718V42.8137H15.9004Z" fill="#009CA5"/>
<path fill-rule="evenodd" clip-rule="evenodd" d="M15.9004 16.7173V9.00708H18.1718V16.7173H15.9004Z" fill="#009CA5"/>
<path fill-rule="evenodd" clip-rule="evenodd" d="M52.4111 27.0461H34.1555V24.7747H52.4111V27.0461Z" fill="#009CA5"/>
<path fill-rule="evenodd" clip-rule="evenodd" d="M46.9429 10.6855H6.05714C3.96635 10.6855 2.27143 12.3804 2.27143 14.4712V37.9426C2.27143 40.0334 3.96635 41.7283 6.05714 41.7283H46.9429C49.0336 41.7283 50.7286 40.0334 50.7286 37.9426V14.4712C50.7286 12.3804 49.0336 10.6855 46.9429 10.6855ZM6.05714 8.41406C2.71188 8.41406 0 11.1259 0 14.4712V37.9426C0 41.2879 2.71187 43.9998 6.05714 43.9998H46.9429C50.2881 43.9998 53 41.2879 53 37.9426V14.4712C53 11.1259 50.2881 8.41406 46.9429 8.41406H6.05714Z" fill="#009CA5"/>
</svg>
